# xmcd
#
# Track frame offsets:
#	150
#	16260
#	30221
#	48224
#	67921
#	80514
#	99212
#	115369
#	132347
#	152105
#	170349
#	183824
#	199728
#	217719
#	232934
#
# Disc length: 3330 seconds
#
# Revision: 0
# Processed by: cddbd v1.5.2PL0 Copyright (c) Steve Scherf et al.
# Submitted via: EasyCDDAExtractor 9.1.3.1
#
DISCID=ab0d000f
DTITLE=Gary Allan - Greatest Hits
DYEAR=2007
DGENRE=Country
TTITLE0=A Feelin' Like That
TTITLE1=Right Where I Need To Be
TTITLE2=Songs About Rain
TTITLE3=Smoke Rings In The Dark
TTITLE4=Her Man
TTITLE5=Best I Ever Had
TTITLE6=Nothing On But The Radio
TTITLE7=Man To Man
TTITLE8=The One
TTITLE9=Lovin' You Against My Will
TTITLE10=It Would Be you
TTITLE11=Man Of Me
TTITLE12=Tough Little Boys
TTITLE13=As The Crow Flies
TTITLE14=Life Aint Always Beautiful
EXTD=
EXTT0=
EXTT1=
EXTT2=
EXTT3=
EXTT4=
EXTT5=
EXTT6=
EXTT7=
EXTT8=
EXTT9=
EXTT10=
EXTT11=
EXTT12=
EXTT13=
EXTT14=
PLAYORDER=
